<svg xmlns="http://www.w3.org/2000/svg" xmlns:xlink="http://www.w3.org/1999/xlink" width="500" zoomAndPan="magnify" viewBox="0 0 375 374.999991" height="500" preserveAspectRatio="xMidYMid meet" version="1.2"><defs><clipPath id="ae25b2e1b7"><path d="M 37.5 251.269531 L 67.1875 251.269531 L 67.1875 337.542969 L 37.5 337.542969 Z M 37.5 251.269531 "/></clipPath><clipPath id="c9f05e0a18"><path d="M 41.25 251.269531 L 63.4375 251.269531 C 65.507812 251.269531 67.1875 252.949219 67.1875 255.019531 L 67.1875 333.75 C 67.1875 335.820312 65.507812 337.5 63.4375 337.5 L 41.25 337.5 C 39.179688 337.5 37.5 335.820312 37.5 333.75 L 37.5 255.019531 C 37.5 252.949219 39.179688 251.269531 41.25 251.269531 Z M 41.25 251.269531 "/></clipPath><clipPath id="e531c4908d"><path d="M 82.550781 221.25 L 112.238281 221.25 L 112.238281 337.558594 L 82.550781 337.558594 Z M 82.550781 221.25 "/></clipPath><clipPath id="a2c5f6d608"><path d="M 86.300781 221.25 L 108.488281 221.25 C 110.558594 221.25 112.238281 222.929688 112.238281 225 L 112.238281 333.75 C 112.238281 335.820312 110.558594 337.5 108.488281 337.5 L 86.300781 337.5 C 84.230469 337.5 82.550781 335.820312 82.550781 333.75 L 82.550781 225 C 82.550781 222.929688 84.230469 221.25 86.300781 221.25 Z M 86.300781 221.25 "/></clipPath><clipPath id="9946b8ae06"><path d="M 127.605469 191.25 L 157.289062 191.25 L 157.289062 337.589844 L 127.605469 337.589844 Z M 127.605469 191.25 "/></clipPath><clipPath id="1b20b566d1"><path d="M 131.355469 191.25 L 153.539062 191.25 C 155.613281 191.25 157.289062 192.929688 157.289062 195 L 157.289062 333.75 C 157.289062 335.820312 155.613281 337.5 153.539062 337.5 L 131.355469 337.5 C 129.285156 337.5 127.605469 335.820312 127.605469 333.75 L 127.605469 195 C 127.605469 192.929688 129.285156 191.25 131.355469 191.25 Z M 131.355469 191.25 "/></clipPath><clipPath id="bbd8beb607"><path d="M 172.65625 161.25 L 202.34375 161.25 L 202.34375 337.507812 L 172.65625 337.507812 Z M 172.65625 161.25 "/></clipPath><clipPath id="9d57a845ca"><path d="M 176.40625 161.25 L 198.59375 161.25 C 200.664062 161.25 202.34375 162.929688 202.34375 165 L 202.34375 333.75 C 202.34375 335.820312 200.664062 337.5 198.59375 337.5 L 176.40625 337.5 C 174.335938 337.5 172.65625 335.820312 172.65625 333.75 L 172.65625 165 C 172.65625 162.929688 174.335938 161.25 176.40625 161.25 Z M 176.40625 161.25 "/></clipPath><clipPath id="07c9df2fd5"><path d="M 217.710938 131.25 L 247.394531 131.25 L 247.394531 337.542969 L 217.710938 337.542969 Z M 217.710938 131.25 "/></clipPath><clipPath id="74d9cbec79"><path d="M 221.460938 131.25 L 243.644531 131.25 C 245.714844 131.25 247.394531 132.929688 247.394531 135 L 247.394531 333.75 C 247.394531 335.820312 245.714844 337.5 243.644531 337.5 L 221.460938 337.5 C 219.386719 337.5 217.710938 335.820312 217.710938 333.75 L 217.710938 135 C 217.710938 132.929688 219.386719 131.25 221.460938 131.25 Z M 221.460938 131.25 "/></clipPath><clipPath id="6fb1dd1199"><path d="M 262.761719 101.25 L 292.449219 101.25 L 292.449219 337.574219 L 262.761719 337.574219 Z M 262.761719 101.25 "/></clipPath><clipPath id="c257911091"><path d="M 266.511719 101.25 L 288.699219 101.25 C 290.769531 101.25 292.449219 102.929688 292.449219 105 L 292.449219 333.75 C 292.449219 335.820312 290.769531 337.5 288.699219 337.5 L 266.511719 337.5 C 264.441406 337.5 262.761719 335.820312 262.761719 333.75 L 262.761719 105 C 262.761719 102.929688 264.441406 101.25 266.511719 101.25 Z M 266.511719 101.25 "/></clipPath><clipPath id="46c28d6578"><path d="M 307.8125 71.25 L 337.5 71.25 L 337.5 337.609375 L 307.8125 337.609375 Z M 307.8125 71.25 "/></clipPath><clipPath id="4c1ff414d4"><path d="M 311.5625 71.25 L 333.75 71.25 C 335.820312 71.25 337.5 72.929688 337.5 75 L 337.5 333.75 C 337.5 335.820312 335.820312 337.5 333.75 337.5 L 311.5625 337.5 C 309.492188 337.5 307.8125 335.820312 307.8125 333.75 L 307.8125 75 C 307.8125 72.929688 309.492188 71.25 311.5625 71.25 Z M 311.5625 71.25 "/></clipPath><clipPath id="a51f5c25cc"><path d="M 38.847656 191.25 L 61.347656 191.25 L 61.347656 213.75 L 38.847656 213.75 Z M 38.847656 191.25 "/></clipPath><clipPath id="2285295267"><path d="M 50.097656 191.25 C 43.882812 191.25 38.847656 196.285156 38.847656 202.5 C 38.847656 208.714844 43.882812 213.75 50.097656 213.75 C 56.308594 213.75 61.347656 208.714844 61.347656 202.5 C 61.347656 196.285156 56.308594 191.25 50.097656 191.25 Z M 50.097656 191.25 "/></clipPath><clipPath id="5a3fe97577"><path d="M 104.984375 144.347656 L 127.484375 144.347656 L 127.484375 166.847656 L 104.984375 166.847656 Z M 104.984375 144.347656 "/></clipPath><clipPath id="1296bd424b"><path d="M 116.234375 144.347656 C 110.023438 144.347656 104.984375 149.386719 104.984375 155.597656 C 104.984375 161.8125 110.023438 166.847656 116.234375 166.847656 C 122.449219 166.847656 127.484375 161.8125 127.484375 155.597656 C 127.484375 149.386719 122.449219 144.347656 116.234375 144.347656 Z M 116.234375 144.347656 "/></clipPath><clipPath id="92957906ea"><path d="M 166.753906 101.15625 L 189.253906 101.15625 L 189.253906 123.65625 L 166.753906 123.65625 Z M 166.753906 101.15625 "/></clipPath><clipPath id="12eaf745c2"><path d="M 178.003906 101.15625 C 171.792969 101.15625 166.753906 106.191406 166.753906 112.40625 C 166.753906 118.617188 171.792969 123.65625 178.003906 123.65625 C 184.21875 123.65625 189.253906 118.617188 189.253906 112.40625 C 189.253906 106.191406 184.21875 101.15625 178.003906 101.15625 Z M 178.003906 101.15625 "/></clipPath><clipPath id="c40237176f"><path d="M 240.140625 71.25 L 262.640625 71.25 L 262.640625 93.75 L 240.140625 93.75 Z M 240.140625 71.25 "/></clipPath><clipPath id="ccbceb57ef"><path d="M 251.390625 71.25 C 245.179688 71.25 240.140625 76.285156 240.140625 82.5 C 240.140625 88.714844 245.179688 93.75 251.390625 93.75 C 257.605469 93.75 262.640625 88.714844 262.640625 82.5 C 262.640625 76.285156 257.605469 71.25 251.390625 71.25 Z M 251.390625 71.25 "/></clipPath><clipPath id="f49baad15a"><path d="M 313.535156 26.191406 L 336.035156 26.191406 L 336.035156 48.691406 L 313.535156 48.691406 Z M 313.535156 26.191406 "/></clipPath><clipPath id="0435ee0122"><path d="M 324.785156 26.191406 C 318.570312 26.191406 313.535156 31.226562 313.535156 37.441406 C 313.535156 43.652344 318.570312 48.691406 324.785156 48.691406 C 330.996094 48.691406 336.035156 43.652344 336.035156 37.441406 C 336.035156 31.226562 330.996094 26.191406 324.785156 26.191406 Z M 324.785156 26.191406 "/></clipPath></defs><g id="d60ace9bee"><rect x="0" width="375" y="0" height="374.999991" style="fill:#ffffff;fill-opacity:1;stroke:none;"/><rect x="0" width="375" y="0" height="374.999991" style="fill:#0a1f3c;fill-opacity:1;stroke:none;"/><g clip-rule="nonzero" clip-path="url(#ae25b2e1b7)"><g clip-rule="nonzero" clip-path="url(#c9f05e0a18)"><path style=" stroke:none;fill-rule:nonzero;fill:#2dace6;fill-opacity:1;" d="M 37.5 251.269531 L 67.1875 251.269531 L 67.1875 337.542969 L 37.5 337.542969 Z M 37.5 251.269531 "/></g></g><g clip-rule="nonzero" clip-path="url(#e531c4908d)"><g clip-rule="nonzero" clip-path="url(#a2c5f6d608)"><path style=" stroke:none;fill-rule:nonzero;fill:#2dace6;fill-opacity:1;" d="M 82.550781 221.25 L 112.238281 221.25 L 112.238281 337.558594 L 82.550781 337.558594 Z M 82.550781 221.25 "/></g></g><g clip-rule="nonzero" clip-path="url(#9946b8ae06)"><g clip-rule="nonzero" clip-path="url(#1b20b566d1)"><path style=" stroke:none;fill-rule:nonzero;fill:#2dace6;fill-opacity:1;" d="M 127.605469 191.25 L 157.289062 191.25 L 157.289062 337.476562 L 127.605469 337.476562 Z M 127.605469 191.25 "/></g></g><g clip-rule="nonzero" clip-path="url(#bbd8beb607)"><g clip-rule="nonzero" clip-path="url(#9d57a845ca)"><path style=" stroke:none;fill-rule:nonzero;fill:#2dace6;fill-opacity:1;" d="M 172.65625 161.25 L 202.34375 161.25 L 202.34375 337.507812 L 172.65625 337.507812 Z M 172.65625 161.25 "/></g></g><g clip-rule="nonzero" clip-path="url(#07c9df2fd5)"><g clip-rule="nonzero" clip-path="url(#74d9cbec79)"><path style=" stroke:none;fill-rule:nonzero;fill:#2dace6;fill-opacity:1;" d="M 217.710938 131.25 L 247.394531 131.25 L 247.394531 337.542969 L 217.710938 337.542969 Z M 217.710938 131.25 "/></g></g><g clip-rule="nonzero" clip-path="url(#6fb1dd1199)"><g clip-rule="nonzero" clip-path="url(#c257911091)"><path style=" stroke:none;fill-rule:nonzero;fill:#2dace6;fill-opacity:1;" d="M 262.761719 101.25 L 292.449219 101.25 L 292.449219 337.460938 L 262.761719 337.460938 Z M 262.761719 101.25 "/></g></g><g clip-rule="nonzero" clip-path="url(#46c28d6578)"><g clip-rule="nonzero" clip-path="url(#4c1ff414d4)"><path style=" stroke:none;fill-rule:nonzero;fill:#2dace6;fill-opacity:1;" d="M 307.8125 71.25 L 337.5 71.25 L 337.5 337.492188 L 307.8125 337.492188 Z M 307.8125 71.25 "/></g></g><g clip-rule="nonzero" clip-path="url(#a51f5c25cc)"><g clip-rule="nonzero" clip-path="url(#2285295267)"><path style="fill:none;stroke-width:12;stroke-linecap:butt;stroke-linejoin:miter;stroke:#f7f5f3;stroke-opacity:1;stroke-miterlimit:4;" d="M 15.079688 0.0000168322 C 6.750071 0.0000168322 0.00156306 6.748525 0.00156306 15.078142 C 0.00156306 23.407759 6.750071 30.156267 15.079688 30.156267 C 23.40407 30.156267 30.157813 23.407759 30.157813 15.078142 C 30.157813 6.748525 23.40407 0.0000168322 15.079688 0.0000168322 Z M 15.079688 0.0000168322 " transform="matrix(0.746114,0,0,0.746114,38.84649,191.249987)"/></g></g><g clip-rule="nonzero" clip-path="url(#5a3fe97577)"><g clip-rule="nonzero" clip-path="url(#1296bd424b)"><path style="fill:none;stroke-width:12;stroke-linecap:butt;stroke-linejoin:miter;stroke:#f7f5f3;stroke-opacity:1;stroke-miterlimit:4;" d="M 15.076908 -0.00259353 C 6.752526 -0.00259353 -0.00121725 6.75115 -0.00121725 15.075531 C -0.00121725 23.405148 6.752526 30.153656 15.076908 30.153656 C 23.406525 30.153656 30.155033 23.405148 30.155033 15.075531 C 30.155033 6.75115 23.406525 -0.00259353 15.076908 -0.00259353 Z M 15.076908 -0.00259353 " transform="matrix(0.746114,0,0,0.746114,104.985283,144.349591)"/></g></g><g clip-rule="nonzero" clip-path="url(#92957906ea)"><g clip-rule="nonzero" clip-path="url(#12eaf745c2)"><path style="fill:none;stroke-width:12;stroke-linecap:butt;stroke-linejoin:miter;stroke:#f7f5f3;stroke-opacity:1;stroke-miterlimit:4;" d="M 15.076021 0.00227504 C 6.75164 0.00227504 -0.00210383 6.750783 -0.00210383 15.0804 C -0.00210383 23.404782 6.75164 30.158525 15.076021 30.158525 C 23.405638 30.158525 30.154146 23.404782 30.154146 15.0804 C 30.154146 6.750783 23.405638 0.00227504 15.076021 0.00227504 Z M 15.076021 0.00227504 " transform="matrix(0.746114,0,0,0.746114,166.755476,101.154553)"/></g></g><g clip-rule="nonzero" clip-path="url(#c40237176f)"><g clip-rule="nonzero" clip-path="url(#ccbceb57ef)"><path style="fill:none;stroke-width:12;stroke-linecap:butt;stroke-linejoin:miter;stroke:#f7f5f3;stroke-opacity:1;stroke-miterlimit:4;" d="M 15.075646 0.00000627082 C 6.751265 0.00000627082 -0.00247862 6.748514 -0.00247862 15.078131 C -0.00247862 23.407748 6.751265 30.156256 15.075646 30.156256 C 23.405263 30.156256 30.153771 23.407748 30.153771 15.078131 C 30.153771 6.748514 23.405263 0.00000627082 15.075646 0.00000627082 Z M 15.075646 0.00000627082 " transform="matrix(0.746114,0,0,0.746114,240.142474,71.249995)"/></g></g><path style="fill:none;stroke-width:6;stroke-linecap:butt;stroke-linejoin:miter;stroke:#ffffff;stroke-opacity:1;stroke-miterlimit:4;" d="M 0.000700527 3.0007 L 77.943982 2.997468 " transform="matrix(0.611791,-0.433834,0.433834,0.611791,58.080579,194.180128)"/><path style="fill:none;stroke-width:6;stroke-linecap:butt;stroke-linejoin:miter;stroke:#ffffff;stroke-opacity:1;stroke-miterlimit:4;" d="M 0.000226946 3.002043 L 70.334743 3.000487 " transform="matrix(0.611762,-0.427797,0.427797,0.611762,124.27419,147.331529)"/><path style="fill:none;stroke-width:6;stroke-linecap:butt;stroke-linejoin:miter;stroke:#ffffff;stroke-opacity:1;stroke-miterlimit:4;" d="M -0.00041291 2.998575 L 75.493942 2.997169 " transform="matrix(0.690092,-0.281206,0.281206,0.690092,187.692223,106.110279)"/><g clip-rule="nonzero" clip-path="url(#f49baad15a)"><g clip-rule="nonzero" clip-path="url(#0435ee0122)"><path style="fill:none;stroke-width:12;stroke-linecap:butt;stroke-linejoin:miter;stroke:#f7f5f3;stroke-opacity:1;stroke-miterlimit:4;" d="M 15.079718 0.00156798 C 6.750101 0.00156798 0.0015927 6.750076 0.0015927 15.079693 C 0.0015927 23.404074 6.750101 30.157818 15.079718 30.157818 C 23.404099 30.157818 30.157843 23.404074 30.157843 15.079693 C 30.157843 6.750076 23.404099 0.00156798 15.079718 0.00156798 Z M 15.079718 0.00156798 " transform="matrix(0.746114,0,0,0.746114,313.533968,26.190236)"/></g></g><path style="fill:none;stroke-width:6;stroke-linecap:butt;stroke-linejoin:miter;stroke:#ffffff;stroke-opacity:1;stroke-miterlimit:4;" d="M -0.00117564 3.002003 L 84.665512 2.998658 " transform="matrix(-0.639149,0.392414,-0.392414,-0.639149,316.376497,45.337156)"/></g></svg>